HIERARCHY
ROOT Hips
{
	OFFSET 0.000000 0.000000 0.000000
	CHANNELS 6 Xposition Yposition Zposition Xrotation Yrotation Zrotation
	JOINT LeftUpLeg_virtual
	{
		OFFSET 0.000000 0.000000 0.000000
		CHANNELS 3 Xrotation Yrotation Zrotation
		JOINT LeftUpLeg
		{
			OFFSET 11.394100 -6.187798 -0.413800
			CHANNELS 3 Xrotation Yrotation Zrotation
			JOINT LeftLeg
			{
				OFFSET 0.430247 -32.302673 3.732800
				CHANNELS 3 Xrotation Yrotation Zrotation
				JOINT LeftFoot
				{
					OFFSET -0.430247 -48.264931 -6.423300
					CHANNELS 3 Xrotation Yrotation Zrotation
					JOINT LeftToeBase
					{
						OFFSET 4.230900 -16.068199 23.438400
						CHANNELS 3 Xrotation Yrotation Zrotation
						JOINT LeftToe_End
						{
							OFFSET 4.510700 0.695400 19.974600
							CHANNELS 3 Xrotation Yrotation Zrotation
							End Site
							{
								OFFSET 0 0 0
							}
						}
					}
				}
			}
		}
	}
	JOINT RightUpLeg_virtual
	{
		OFFSET 0.000000 0.000000 0.000000
		CHANNELS 3 Xrotation Yrotation Zrotation
		JOINT RightUpLeg
		{
			OFFSET -11.333700 -6.187798 -0.413800
			CHANNELS 3 Xrotation Yrotation Zrotation
			JOINT RightLeg
			{
				OFFSET -0.430392 -32.302628 3.733000
				CHANNELS 3 Xrotation Yrotation Zrotation
				JOINT RightFoot
				{
					OFFSET 0.430392 -48.264973 -6.423500
					CHANNELS 3 Xrotation Yrotation Zrotation
					JOINT RightToeBase
					{
						OFFSET -4.230900 -16.068199 23.438400
						CHANNELS 3 Xrotation Yrotation Zrotation
						JOINT RightToe_End
						{
							OFFSET -4.510700 0.695400 19.974600
							CHANNELS 3 Xrotation Yrotation Zrotation
							End Site
							{
								OFFSET 0 0 0
							}
						}
					}
				}
			}
		}
	}
	JOINT Spine_virtual
	{
		OFFSET 0.000000 0.000000 0.000000
		CHANNELS 3 Xrotation Yrotation Zrotation
		JOINT Spine
		{
			OFFSET -0.002400 12.777504 0.315300
			CHANNELS 3 Xrotation Yrotation Zrotation
			JOINT Spine1
			{
				OFFSET -0.002067 5.816869 0.032633
				CHANNELS 3 Xrotation Yrotation Zrotation
				JOINT Spine1_split
				{
					OFFSET -0.002067 5.816869 0.032633
					CHANNELS 3 Xrotation Yrotation Zrotation
					JOINT Spine2
					{
						OFFSET -0.002067 5.816869 0.032633
						CHANNELS 3 Xrotation Yrotation Zrotation
						JOINT Neck_virtual
						{
							OFFSET 0.000000 0.000000 0.000000
							CHANNELS 3 Xrotation Yrotation Zrotation
							JOINT Neck
							{
								OFFSET -0.003700 21.199493 -0.826900
								CHANNELS 3 Xrotation Yrotation Zrotation
								JOINT Head
								{
									OFFSET 0.000000 20.442200 4.834800
									CHANNELS 3 Xrotation Yrotation Zrotation
									JOINT HeadTop_End
									{
										OFFSET 0.000000 34.668396 4.968400
										CHANNELS 3 Xrotation Yrotation Zrotation
										End Site
										{
											OFFSET 0 0 0
										}
									}
								}
							}
						}
						JOINT LeftShoulder_virtual
						{
							OFFSET 0.000000 0.000000 0.000000
							CHANNELS 3 Xrotation Yrotation Zrotation
							JOINT LeftShoulder
							{
								OFFSET 3.288150 8.794197 -1.372250
								CHANNELS 3 Xrotation Yrotation Zrotation
								JOINT LeftShoulder_split
								{
									OFFSET 3.288150 8.794197 -1.372250
									CHANNELS 3 Xrotation Yrotation Zrotation
									JOINT LeftArm
									{
										OFFSET 11.953299 -2.279007 -0.146200
										CHANNELS 3 Xrotation Yrotation Zrotation
										JOINT LeftForeArm
										{
											OFFSET 18.448900 0.000000 0.000000
											CHANNELS 3 Xrotation Yrotation Zrotation
											JOINT LeftHand
											{
												OFFSET 29.527798 0.000000 0.000000
												CHANNELS 3 Xrotation Yrotation Zrotation
												End Site
												{
													OFFSET 0 0 0
												}
											}
										}
									}
								}
							}
						}
						JOINT RightShoulder_virtual
						{
							OFFSET 0.000000 0.000000 0.000000
							CHANNELS 3 Xrotation Yrotation Zrotation
							JOINT RightShoulder
							{
								OFFSET -3.249400 8.794197 -1.372250
								CHANNELS 3 Xrotation Yrotation Zrotation
								JOINT RightShoulder_split
								{
									OFFSET -3.249400 8.794197 -1.372250
									CHANNELS 3 Xrotation Yrotation Zrotation
									JOINT RightArm
									{
										OFFSET -11.953299 -2.279007 -0.146200
										CHANNELS 3 Xrotation Yrotation Zrotation
										JOINT RightForeArm
										{
											OFFSET -18.448900 0.000000 0.000000
											CHANNELS 3 Xrotation Yrotation Zrotation
											JOINT RightHand
											{
												OFFSET -29.527802 0.000000 0.000000
												CHANNELS 3 Xrotation Yrotation Zrotation
												End Site
												{
													OFFSET 0 0 0
												}
											}
										}
									}
								}
							}
						}
					}
				}
			}
		}
	}
}
MOTION
Frames: 4
Frame Time: 0.03333333
-7.027991 95.547012 0.384857 0.000000 0.000000 0.000000 3.371709 29.654373 0.636292 -35.614205 -18.491325 0.269426 31.510982 15.729477 -6.716813 4.567843 -0.854334 -5.059843 2.625381 -1.769121 -0.331955 0.000000 0.000000 0.000000 4.318364 27.880895 0.336757 -1.983075 -22.365200 -9.432468 26.856060 -9.096296 5.166343 -22.463772 -11.003440 -0.804842 -2.931768 0.025639 0.016102 0.000000 0.000000 0.000000 4.604656 28.947295 -0.505523 3.706144 4.500056 -0.814592 0.450905 3.205027 0.508079 0.441468 0.732675 0.092086 0.000000 0.000000 0.000000 1.591276 2.812365 0.872099 -3.121308 11.910816 -6.867127 -6.256368 9.349158 10.022527 0.000000 0.000000 0.000000 0.433167 3.082177 0.907626 -0.033076 -2.031511 -3.187346 2.812430 -1.157083 -0.146779 -74.337887 -0.186117 -25.556394 1.323164 -65.438840 3.276510 0.000000 0.000000 0.000000 1.172448 3.054686 0.895771 4.222953 12.193614 8.157121 -5.265260 -0.455329 0.386210 14.573342 -6.139076 67.243998 16.940561 40.724395 -6.998336 0.000000 0.000000 0.000000 
-6.973302 95.711555 0.162781 0.000000 0.000000 0.000000 3.925429 26.780948 0.385406 -34.919428 -17.824178 1.681769 31.123581 16.585233 -6.694352 4.410169 -0.502709 -5.395867 2.820281 -1.792407 -0.473751 0.000000 0.000000 0.000000 4.967033 25.114167 0.106698 -3.196812 -20.818645 -9.248304 26.686154 -8.760966 5.005418 -21.515475 -10.844052 -0.849837 -2.985204 0.021297 -0.154393 0.000000 0.000000 0.000000 5.144863 26.260329 -0.752237 3.712998 4.282383 -0.964364 0.584599 3.075158 0.502721 0.414842 0.832878 0.019661 0.000000 0.000000 0.000000 1.676079 2.671945 0.846351 -3.885415 8.598896 -6.294500 -4.596647 6.165725 10.432353 0.000000 0.000000 0.000000 0.486478 2.938070 0.876732 -0.024902 -2.619658 -3.302670 2.734385 -0.964137 -0.009267 -74.749167 0.288719 -26.706694 1.894794 -67.688145 3.470531 0.000000 0.000000 0.000000 1.289007 2.908887 0.866661 4.201866 12.031500 7.954547 -5.281426 -0.333264 0.314860 14.020980 -5.936854 67.292922 17.360681 41.999417 -7.354555 0.000000 0.000000 0.000000 
-6.894901 95.871239 -0.101440 0.000000 0.000000 0.000000 4.519133 23.741816 0.122262 -34.314006 -17.306122 3.127719 30.769220 17.619009 -6.667918 4.255522 -0.032592 -5.809554 3.037799 -1.786904 -0.673884 0.000000 0.000000 0.000000 5.644591 22.119385 -0.126062 -4.550701 -19.177498 -9.037572 26.517979 -8.314691 4.845346 -20.510233 -10.617434 -0.837432 -3.106555 0.005151 -0.282162 0.000000 0.000000 0.000000 5.726142 23.312730 -0.993808 3.694570 4.058916 -1.095692 0.745585 2.933173 0.493454 0.410117 1.020789 -0.020853 0.000000 0.000000 0.000000 1.779696 2.524530 0.822073 -4.953450 5.259830 -5.837627 -2.956864 3.073803 10.656765 0.000000 0.000000 0.000000 0.553477 2.806471 0.847711 -0.002484 -3.285108 -3.313323 2.657701 -0.905493 0.083903 -75.025366 0.659961 -28.116578 2.729360 -70.078349 3.915419 0.000000 0.000000 0.000000 1.437440 2.766135 0.826975 4.157081 11.779296 7.715977 -5.229569 -0.205515 0.262852 13.493435 -5.602235 67.306672 17.841788 43.374010 -7.761450 0.000000 0.000000 0.000000 
-6.789414 96.029015 -0.394573 0.000000 0.000000 0.000000 5.126645 20.498878 -0.145232 -33.770634 -16.911700 4.613190 30.470635 18.808092 -6.628170 4.130568 0.545392 -6.317149 3.226709 -1.757835 -0.923049 0.000000 0.000000 0.000000 6.301150 18.884124 -0.347776 -5.990015 -17.466264 -8.760024 26.330101 -7.747308 4.677316 -19.512285 -10.301083 -0.806445 -3.262561 -0.027593 -0.341770 0.000000 0.000000 0.000000 6.312186 20.065687 -1.207646 3.655316 3.825529 -1.196616 0.921743 2.772801 0.486650 0.411242 1.299094 -0.004120 0.000000 0.000000 0.000000 1.892819 2.366872 0.805219 -6.321591 1.840919 -5.419334 -1.285954 -0.029954 10.729124 0.000000 0.000000 0.000000 0.634921 2.683044 0.824042 0.039314 -3.995957 -3.224841 2.577283 -1.010792 0.135575 -75.131828 0.812016 -29.794118 3.860881 -72.237918 4.651796 0.000000 0.000000 0.000000 1.618227 2.626130 0.781032 4.092694 11.478763 7.461912 -5.091847 -0.042483 0.188369 13.040121 -5.109271 67.209089 18.354853 44.758721 -8.171730 0.000000 0.000000 0.000000 
